<svg width="24" height="24" viewBox="0 0 24 24" fill="none" xmlns="http://www.w3.org/2000/svg">
<mask id="mask0_1679_463" style="mask-type:luminance" maskUnits="userSpaceOnUse" x="2" y="2" width="20" height="20">
<path d="M12 21C13.1821 21.0015 14.3529 20.7694 15.445 20.317C16.5372 19.8646 17.5291 19.2009 18.3639 18.3639C19.2009 17.5291 19.8646 16.5372 20.317 15.445C20.7694 14.3529 21.0015 13.1821 21 12C21.0015 10.8179 20.7694 9.64712 20.317 8.555C19.8646 7.46287 19.2009 6.4709 18.3639 5.63611C17.5291 4.79912 16.5372 4.13536 15.445 3.68297C14.3529 3.23057 13.1821 2.99848 12 3.00001C10.8179 2.9985 9.64712 3.23061 8.555 3.683C7.46287 4.13539 6.4709 4.79914 5.63611 5.63611C4.79914 6.4709 4.13539 7.46287 3.683 8.555C3.23061 9.64712 2.9985 10.8179 3.00001 12C2.99848 13.1821 3.23057 14.3529 3.68297 15.445C4.13536 16.5372 4.79912 17.5291 5.63611 18.3639C6.4709 19.2009 7.46287 19.8646 8.555 20.317C9.64712 20.7694 10.8179 21.0015 12 21Z" fill="white" stroke="white" stroke-width="2" stroke-linejoin="round"/>
<path d="M8 12L11 15L17 9" stroke="black" stroke-width="2" stroke-linecap="round" stroke-linejoin="round"/>
</mask>
<g mask="url(#mask0_1679_463)">
<path d="M0 0H24V24H0V0Z" fill="#13AF35"/>
</g>
</svg>
