<svg width="188" height="31" viewBox="0 0 188 31" fill="none" xmlns="http://www.w3.org/2000/svg">
<g clip-path="url(#clip0_1561_3370)">
<path d="M23.2957 10.3354L21.0833 13.4968L21.0662 13.5254V17.4528H23.2499V20.9285H24.4333V10.3354H23.2957ZM22.2495 16.2694V13.897L23.2499 12.4735V16.2694H22.2495Z" fill="#FF9500"/>
<path d="M18.5907 13.068L17.979 13.8398V10.3354H16.7956V13.8398L16.184 13.068V10.3354H14.9949V13.8684L16.7956 15.8807V20.9285H17.979V15.8807L19.7798 13.8684V10.3354H18.5907V13.068Z" fill="#FF9500"/>
<path d="M34.7004 27.6231L29.2809 22.2037C30.6987 20.2886 31.539 17.9161 31.539 15.355C31.539 8.99234 26.3597 3.81299 19.997 3.81299C13.6343 3.81299 8.44922 8.99234 8.44922 15.355C8.44922 21.7178 13.6286 26.8971 19.9913 26.8971C22.5524 26.8971 24.9191 26.0567 26.8399 24.639L32.2594 30.0584L34.7004 27.6174V27.6231ZM19.9913 23.6957C15.395 23.6957 11.6506 19.9513 11.6506 15.355C11.6506 10.7588 15.395 7.01435 19.9913 7.01435C24.5875 7.01435 28.332 10.7588 28.332 15.355C28.332 19.9513 24.5875 23.6957 19.9913 23.6957Z" fill="#FF9500"/>
<path d="M5.69385 17.0815V13.6343H-0.00572109V17.0815H5.69385Z" fill="#FF9500"/>
<path d="M6.12687 11.4777L7.44604 8.29297L2.18033 6.11184L0.861151 9.29662L6.12687 11.4777Z" fill="#FF9500"/>
<path d="M8.66697 6.46633L11.1045 4.02881L7.07429 -0.00139539L4.63676 2.43613L8.66697 6.46633Z" fill="#FF9500"/>
<path d="M65.4279 14.9892L61.2032 21.0204V3.7959H56.2754V29.4239H61.3347L71.4418 14.9892H65.4279Z" fill="#FF9500"/>
<path d="M47.4832 29.4239L52.0623 22.8154V3.7959H47.1344V21.2662L41.4863 29.4239H47.4832Z" fill="#FF9500"/>
<path d="M181.98 14.9892L177.761 21.0204V3.7959H172.833V29.4239H177.893L188 14.9892H181.98Z" fill="#FF9500"/>
<path d="M164.041 29.4239L168.62 22.8154V3.7959H163.687V21.2662L158.044 29.4239H164.041Z" fill="#FF9500"/>
<path d="M157.679 12.7998H143.964V17.7276H157.679V12.7998Z" fill="#FF9500"/>
<path d="M79.4624 12.7998H75.2378V20.4774H79.4624V12.7998Z" fill="#FF9500"/>
<path d="M85.608 12.7998H81.3833V20.4774H85.608V12.7998Z" fill="#FF9500"/>
<path d="M92.9825 21.575V12.7998H88.0547V19.9914L81.5205 29.424H87.5173L92.9539 21.575H92.9825Z" fill="#FF9500"/>
<path d="M122.944 19.4941V24.7421L137.602 30.0644V24.8164L122.944 19.4941Z" fill="#FF9500"/>
<path d="M122.944 16.5727L137.602 21.8949V16.647L122.944 11.3247V16.5727Z" fill="#FF9500"/>
<path d="M137.602 13.726V8.47803L122.944 3.15576V8.40371L137.602 13.726Z" fill="#FF9500"/>
<path d="M108.629 6.75716L110.704 3.7959H104.685L96.8469 14.9892H102.861L105.176 11.6907H111.505V15.9496L102.072 29.4239H108.086L116.575 17.2988V6.75716H108.629Z" fill="#FF9500"/>
</g>
<defs>
<clipPath id="clip0_1561_3370">
<rect width="188" height="30.0642" fill="white"/>
</clipPath>
</defs>
</svg>
